<svg width="85" height="80" viewBox="0 0 85 80" fill="none" xmlns="http://www.w3.org/2000/svg">
<rect width="84.2105" height="80" fill="white"/>
<path d="M28.5003 40.1999C28.5003 39.7892 28.6583 39.3954 28.9396 39.105C29.2209 38.8146 29.6025 38.6515 30.0003 38.6515L50.3853 38.6515L48.4353 36.6541C48.1528 36.3625 47.9941 35.9671 47.9941 35.5547C47.9941 35.1424 48.1528 34.7469 48.4353 34.4554C48.7177 34.1638 49.1008 34 49.5003 34C49.8997 34 50.2828 34.1638 50.5653 34.4554L55.0653 39.1005C55.2734 39.3183 55.4144 39.5948 55.4705 39.8951C55.5265 40.1955 55.4951 40.5063 55.3803 40.7883C55.2677 41.071 55.0767 41.3131 54.8311 41.4839C54.5855 41.6548 54.2964 41.7467 54.0003 41.7483L30.0003 41.7483C29.6025 41.7483 29.2209 41.5851 28.9396 41.2948C28.6583 41.0044 28.5003 40.6105 28.5003 40.1999Z" fill="#393D46"/>
<path d="M47.9997 44.845C47.9986 44.6412 48.0364 44.4392 48.1111 44.2506C48.1857 44.0619 48.2957 43.8903 48.4347 43.7457L52.9347 39.1005C53.2172 38.8089 53.6003 38.6451 53.9997 38.6451C54.1975 38.6451 54.3934 38.6854 54.5761 38.7635C54.7588 38.8416 54.9249 38.9561 55.0647 39.1005C55.2046 39.2449 55.3155 39.4163 55.3912 39.6049C55.4669 39.7935 55.5059 39.9957 55.5059 40.1999C55.5059 40.6122 55.3472 41.0077 55.0647 41.2992L50.5647 45.9444C50.4253 46.0895 50.2594 46.2047 50.0766 46.2833C49.8938 46.3619 49.6977 46.4024 49.4997 46.4024C49.3017 46.4024 49.1056 46.3619 48.9229 46.2833C48.7401 46.2047 48.5742 46.0895 48.4347 45.9444C48.2957 45.7997 48.1857 45.6281 48.1111 45.4395C48.0364 45.2508 47.9986 45.0488 47.9997 44.845Z" fill="#393D46"/>
</svg>
