<svg width="32" height="31" viewBox="0 0 32 31" fill="none" xmlns="http://www.w3.org/2000/svg">
<path d="M6.99998 14.9999C6.99998 14.7347 7.10534 14.4804 7.29288 14.2928C7.48041 14.1053 7.73477 13.9999 7.99998 13.9999L21.59 13.9999L20.29 12.7099C20.1017 12.5216 19.9959 12.2662 19.9959 11.9999C19.9959 11.7336 20.1017 11.4782 20.29 11.2899C20.4783 11.1016 20.7337 10.9958 21 10.9958C21.2663 10.9958 21.5217 11.1016 21.71 11.2899L24.71 14.2899C24.8487 14.4306 24.9427 14.6091 24.9801 14.8031C25.0175 14.9971 24.9966 15.1978 24.92 15.3799C24.845 15.5626 24.7176 15.7189 24.5538 15.8292C24.3901 15.9396 24.1974 15.999 24 15.9999L7.99998 15.9999C7.73477 15.9999 7.48041 15.8946 7.29288 15.707C7.10534 15.5195 6.99998 15.2652 6.99998 14.9999Z" fill="#393D46"/>
<path d="M20.0001 17.9999C19.9993 17.8683 20.0245 17.7379 20.0743 17.616C20.1241 17.4942 20.1974 17.3834 20.2901 17.2899L23.2901 14.2899C23.4784 14.1016 23.7338 13.9958 24.0001 13.9958C24.1319 13.9958 24.2625 14.0218 24.3843 14.0723C24.5061 14.1227 24.6168 14.1967 24.7101 14.2899C24.8033 14.3832 24.8773 14.4939 24.9277 14.6157C24.9782 14.7375 25.0042 14.8681 25.0042 14.9999C25.0042 15.2662 24.8984 15.5216 24.7101 15.7099L21.7101 18.7099C21.6171 18.8037 21.5065 18.8781 21.3846 18.9288C21.2628 18.9796 21.1321 19.0057 21.0001 19.0057C20.868 19.0057 20.7373 18.9796 20.6155 18.9288C20.4936 18.8781 20.383 18.8037 20.2901 18.7099C20.1974 18.6165 20.1241 18.5057 20.0743 18.3838C20.0245 18.262 19.9993 18.1315 20.0001 17.9999Z" fill="#393D46"/>
</svg>
