<svg width="80" height="80" viewBox="0 0 80 80" fill="none" xmlns="http://www.w3.org/2000/svg">
<rect width="80" height="80" fill="white"/>
<path d="M53.5002 40.1999C53.5002 39.7892 53.3422 39.3954 53.0609 39.105C52.7796 38.8146 52.398 38.6515 52.0002 38.6515L31.6152 38.6515L33.5652 36.6541C33.8477 36.3625 34.0063 35.9671 34.0063 35.5547C34.0063 35.1424 33.8477 34.7469 33.5652 34.4554C33.2828 34.1638 32.8997 34 32.5002 34C32.1008 34 31.7177 34.1638 31.4352 34.4554L26.9352 39.1005C26.7271 39.3183 26.5861 39.5948 26.53 39.8951C26.474 40.1955 26.5053 40.5063 26.6202 40.7883C26.7327 41.071 26.9238 41.3131 27.1694 41.4839C27.415 41.6548 27.7041 41.7467 28.0002 41.7483L52.0002 41.7483C52.398 41.7483 52.7796 41.5851 53.0609 41.2948C53.3422 41.0044 53.5002 40.6105 53.5002 40.1999Z" fill="#CDCFD1"/>
<path d="M33.9998 44.845C34.0009 44.6412 33.9631 44.4392 33.8884 44.2506C33.8138 44.0619 33.7038 43.8903 33.5648 43.7457L29.0648 39.1005C28.7823 38.8089 28.3992 38.6451 27.9998 38.6451C27.802 38.6451 27.6061 38.6854 27.4234 38.7635C27.2407 38.8416 27.0746 38.9561 26.9348 39.1005C26.7949 39.2449 26.684 39.4163 26.6083 39.6049C26.5326 39.7935 26.4937 39.9957 26.4937 40.1999C26.4937 40.6122 26.6523 41.0076 26.9348 41.2992L31.4348 45.9444C31.5742 46.0895 31.7401 46.2047 31.9229 46.2833C32.1057 46.3619 32.3018 46.4024 32.4998 46.4024C32.6978 46.4024 32.8939 46.3619 33.0767 46.2833C33.2594 46.2047 33.4253 46.0895 33.5648 45.9444C33.7038 45.7997 33.8138 45.6281 33.8884 45.4395C33.9631 45.2508 34.0009 45.0488 33.9998 44.845Z" fill="#CDCFD1"/>
</svg>
