<svg width="970" height="69" viewBox="0 0 970 69" fill="none" xmlns="http://www.w3.org/2000/svg">
<path d="M27.221 28.2458C29.8257 28.8009 31.918 30.1033 33.4979 32.1529C35.0778 34.1597 35.8677 36.4655 35.8677 39.0702C35.8677 42.8278 34.544 45.8168 31.8967 48.0371C29.292 50.2148 25.6412 51.3037 20.9442 51.3037H0V6.3409H20.2396C24.8085 6.3409 28.3739 7.38704 30.9359 9.47933C33.5406 11.5716 34.8429 14.4111 34.8429 17.9979C34.8429 20.6453 34.1384 22.8443 32.7293 24.595C31.3629 26.3457 29.5268 27.5626 27.221 28.2458ZM10.9525 24.531H18.126C19.9194 24.531 21.2858 24.1467 22.2252 23.3781C23.2073 22.5668 23.6983 21.3925 23.6983 19.8553C23.6983 18.3182 23.2073 17.1439 22.2252 16.3326C21.2858 15.5213 19.9194 15.1157 18.126 15.1157H10.9525V24.531ZM19.0227 42.4648C20.8588 42.4648 22.2679 42.0592 23.25 41.2479C24.2748 40.3939 24.7872 39.1769 24.7872 37.5971C24.7872 36.0172 24.2534 34.7789 23.1859 33.8822C22.1611 32.9855 20.7307 32.5372 18.8946 32.5372H10.9525V42.4648H19.0227Z" fill="#9F9F9F"/>
<path d="M40.0425 33.3698C40.0425 29.6976 40.7256 26.4738 42.092 23.6983C43.5011 20.9228 45.4013 18.7879 47.7924 17.2934C50.1836 15.7989 52.8524 15.0516 55.7986 15.0516C58.3179 15.0516 60.5169 15.564 62.3957 16.5888C64.3172 17.6136 65.7904 18.9587 66.8151 20.6239V15.564H77.7676V51.3037H66.8151V46.2437C65.7477 47.909 64.2532 49.2541 62.3317 50.2789C60.4529 51.3037 58.2539 51.8161 55.7346 51.8161C52.831 51.8161 50.1836 51.0688 47.7924 49.5743C45.4013 48.0371 43.5011 45.8808 42.092 43.1053C40.7256 40.2871 40.0425 37.042 40.0425 33.3698ZM66.8151 33.4338C66.8151 30.7011 66.0466 28.5447 64.5094 26.9648C63.0149 25.385 61.1788 24.595 59.0011 24.595C56.8234 24.595 54.966 25.385 53.4288 26.9648C51.9343 28.502 51.1871 30.637 51.1871 33.3698C51.1871 36.1026 51.9343 38.2803 53.4288 39.9028C54.966 41.4827 56.8234 42.2727 59.0011 42.2727C61.1788 42.2727 63.0149 41.4827 64.5094 39.9028C66.0466 38.323 66.8151 36.1666 66.8151 33.4338Z" fill="#9F9F9F"/>
<path d="M91.1354 11.8492C89.214 11.8492 87.6341 11.2941 86.3958 10.1839C85.2002 9.03098 84.6024 7.62189 84.6024 5.95661C84.6024 4.24862 85.2002 2.83953 86.3958 1.72934C87.6341 0.576446 89.214 0 91.1354 0C93.0142 0 94.5514 0.576446 95.747 1.72934C96.9853 2.83953 97.6044 4.24862 97.6044 5.95661C97.6044 7.62189 96.9853 9.03098 95.747 10.1839C94.5514 11.2941 93.0142 11.8492 91.1354 11.8492ZM96.6437 55.9152C96.6437 60.3133 95.5335 63.4731 93.3131 65.3945C91.0927 67.3587 87.997 68.3408 84.0259 68.3408H79.7346V59.0536H82.3607C83.5562 59.0536 84.4102 58.8188 84.9226 58.3491C85.435 57.8794 85.6912 57.1108 85.6912 56.0433V15.564H96.6437V55.9152Z" fill="#9F9F9F"/>
<path d="M139.81 15.564V51.3037H128.857V46.4359C127.747 48.0158 126.231 49.2968 124.31 50.2789C122.431 51.2183 120.339 51.688 118.033 51.688C115.3 51.688 112.887 51.0902 110.795 49.8946C108.703 48.6563 107.08 46.8842 105.927 44.5785C104.774 42.2727 104.198 39.5612 104.198 36.4442V15.564H115.086V34.971C115.086 37.3622 115.706 39.2196 116.944 40.5433C118.182 41.867 119.847 42.5289 121.94 42.5289C124.075 42.5289 125.761 41.867 127 40.5433C128.238 39.2196 128.857 37.3622 128.857 34.971V15.564H139.81Z" fill="#9F9F9F"/>
<path d="M182.968 15.564V51.3037H172.015V46.4359C170.905 48.0158 169.389 49.2968 167.468 50.2789C165.589 51.2183 163.497 51.688 161.191 51.688C158.458 51.688 156.046 51.0902 153.954 49.8946C151.861 48.6563 150.239 46.8842 149.086 44.5785C147.933 42.2727 147.356 39.5612 147.356 36.4442V15.564H158.245V34.971C158.245 37.3622 158.864 39.2196 160.102 40.5433C161.341 41.867 163.006 42.5289 165.098 42.5289C167.233 42.5289 168.92 41.867 170.158 40.5433C171.396 39.2196 172.015 37.3622 172.015 34.971V15.564H182.968Z" fill="#9F9F9F"/>
<path d="M302.612 53.5773C303.253 54.5594 303.915 55.3493 304.598 55.9471C305.281 56.5449 306.157 57.0573 307.224 57.4843V58.7653C304.235 58.6372 300.904 58.5732 297.232 58.5732C294.414 58.5732 291.703 58.6372 289.098 58.7653V57.4843C290.294 57.3989 291.148 57.2708 291.66 57.1C292.215 56.9292 292.493 56.6303 292.493 56.2033C292.493 55.8617 292.258 55.328 291.788 54.6021L282.501 39.5504C281.647 38.1841 280.921 37.266 280.323 36.7963C279.768 36.3266 279 36.0491 278.017 35.9637V51.9761C278.017 53.5986 278.124 54.7729 278.338 55.4988C278.594 56.2247 279.042 56.7157 279.683 56.9719C280.323 57.2281 281.369 57.3989 282.821 57.4843V58.7653C280.515 58.6372 277.292 58.5732 273.15 58.5732C268.581 58.5732 265.208 58.6372 263.03 58.7653V57.4843C264.439 57.3989 265.464 57.2281 266.104 56.9719C266.787 56.7157 267.236 56.2247 267.449 55.4988C267.705 54.7729 267.834 53.5986 267.834 51.9761V20.2075C267.834 18.5849 267.705 17.4107 267.449 16.6848C267.236 15.9589 266.787 15.4678 266.104 15.2116C265.464 14.9554 264.439 14.7846 263.03 14.6992V13.4183C265.208 13.5463 268.581 13.6104 273.15 13.6104C277.292 13.6104 280.515 13.5463 282.821 13.4183V14.6992C281.369 14.7846 280.323 14.9554 279.683 15.2116C279.042 15.4678 278.594 15.9589 278.338 16.6848C278.124 17.4107 278.017 18.5849 278.017 20.2075V34.6186C279.725 34.5332 281.284 34.0208 282.693 33.0814C284.102 32.1421 285.703 30.6476 287.497 28.598L291.276 24.0505C293.24 21.7874 294.222 19.8018 294.222 18.0939C294.222 17.0691 293.795 16.2578 292.941 15.66C292.13 15.0622 290.977 14.7206 289.482 14.6352V13.4183C292.599 13.5463 295.759 13.6104 298.962 13.6104C301.438 13.6104 303.445 13.5463 304.982 13.4183V14.6352C301.566 15.4465 298.471 17.4961 295.695 20.7839L287.689 30.3273L302.612 53.5773Z" fill="#9F9F9F"/>
<path d="M316.567 59.2136C313.834 59.2136 311.784 58.5091 310.418 57.1C309.094 55.6909 308.432 53.8335 308.432 51.5277C308.432 49.6062 308.923 48.0263 309.906 46.788C310.93 45.5071 312.147 44.525 313.556 43.8418C315.008 43.1586 316.844 42.4327 319.065 41.6641C321.413 40.8528 323.121 40.1269 324.189 39.4864C325.299 38.8032 325.854 37.8852 325.854 36.7323V31.7364C325.854 29.943 325.427 28.5553 324.573 27.5732C323.762 26.5484 322.481 26.036 320.73 26.036C318.68 26.036 317.122 26.5484 316.054 27.5732C317.25 28.0002 318.168 28.6407 318.808 29.4947C319.492 30.3487 319.833 31.3521 319.833 32.505C319.833 33.9568 319.342 35.1097 318.36 35.9637C317.378 36.8177 316.182 37.2447 314.773 37.2447C313.279 37.2447 312.126 36.775 311.315 35.8356C310.503 34.8962 310.098 33.7219 310.098 32.3129C310.098 31.1173 310.375 30.1138 310.93 29.3025C311.528 28.4485 312.425 27.6586 313.62 26.9327C314.773 26.2495 316.182 25.7158 317.848 25.3315C319.556 24.9472 321.413 24.755 323.42 24.755C325.512 24.755 327.327 24.9685 328.864 25.3955C330.401 25.8225 331.682 26.5484 332.707 27.5732C333.647 28.5126 334.266 29.6655 334.565 31.0319C334.906 32.3983 335.077 34.2557 335.077 36.6042V54.0256C335.077 55.0504 335.162 55.7763 335.333 56.2033C335.547 56.6303 335.931 56.8438 336.486 56.8438C337.127 56.8438 337.895 56.4809 338.792 55.755L339.432 56.8438C337.511 58.4237 335.162 59.2136 332.387 59.2136C330.038 59.2136 328.395 58.744 327.455 57.8046C326.516 56.8652 326.025 55.6055 325.982 54.0256C323.847 57.4843 320.709 59.2136 316.567 59.2136ZM321.499 55.1145C323.164 55.1145 324.616 54.2391 325.854 52.4885V39.3583C325.342 40.2123 324.253 41.1517 322.587 42.1765C320.922 43.244 319.662 44.3115 318.808 45.379C317.954 46.4464 317.527 47.9836 317.527 49.9905C317.527 51.7412 317.89 53.0435 318.616 53.8975C319.342 54.7088 320.303 55.1145 321.499 55.1145Z" fill="#9F9F9F"/>
<path d="M354.265 25.6517H361.823V26.9327H354.265V52.8087C354.265 54.0897 354.478 55.0077 354.905 55.5628C355.375 56.0752 356.101 56.3314 357.083 56.3314C358.919 56.3314 360.371 55.0504 361.438 52.4885L362.527 53.0649C360.905 57.463 357.98 59.662 353.752 59.662C350.934 59.662 348.799 58.9361 347.348 57.4843C346.451 56.5876 345.832 55.4774 345.49 54.1537C345.191 52.7873 345.042 50.9299 345.042 48.5814V26.9327H339.662V25.6517H345.042V17.1972C348.586 17.1972 351.66 16.514 354.265 15.1476V25.6517Z" fill="#9F9F9F"/>
<path d="M376.782 30.7116C378.704 26.7405 382.184 24.755 387.222 24.755C390.553 24.755 392.901 25.5877 394.268 27.2529C394.994 28.0642 395.506 29.1317 395.805 30.4554C396.147 31.7364 396.317 33.4444 396.317 35.5794V52.8087C396.317 54.5594 396.616 55.7763 397.214 56.4595C397.812 57.1 398.879 57.4203 400.417 57.4203V58.7653C395.976 58.5945 393.158 58.5091 391.962 58.5091C390.51 58.5091 387.735 58.5945 383.636 58.7653V57.4203C384.917 57.4203 385.813 57.1 386.326 56.4595C386.838 55.7763 387.094 54.5594 387.094 52.8087V32.8893C387.094 31.1386 386.795 29.8149 386.198 28.9182C385.642 28.0215 384.618 27.5732 383.123 27.5732C381.33 27.5732 379.814 28.2777 378.576 29.6868C377.38 31.0532 376.782 32.8039 376.782 34.9389V52.8087C376.782 54.5594 377.038 55.7763 377.551 56.4595C378.063 57.1 378.96 57.4203 380.241 57.4203V58.7653C376.142 58.5945 373.494 58.5091 372.299 58.5091C370.847 58.5091 367.901 58.5945 363.46 58.7653V57.4203C364.954 57.4203 366.001 57.1 366.598 56.4595C367.239 55.7763 367.559 54.5594 367.559 52.8087V16.3645C367.559 14.4003 367.239 12.9699 366.598 12.0732C366.001 11.1765 364.954 10.7282 363.46 10.7282V9.38313C364.826 9.51123 366.15 9.57528 367.431 9.57528C371.146 9.57528 374.263 9.27638 376.782 8.67858V30.7116Z" fill="#9F9F9F"/>
<path d="M419.273 24.755C424.183 24.755 428.026 26.1641 430.802 28.9823C433.577 31.7578 434.965 36.1772 434.965 42.2405C434.965 48.3039 433.577 52.7233 430.802 55.4988C428.026 58.2743 424.183 59.662 419.273 59.662C414.405 59.662 410.562 58.2743 407.744 55.4988C404.968 52.7233 403.58 48.3039 403.58 42.2405C403.58 36.1772 404.968 31.7578 407.744 28.9823C410.562 26.1641 414.405 24.755 419.273 24.755ZM419.273 26.036C417.437 26.036 415.963 27.381 414.853 30.0711C413.786 32.7185 413.252 36.775 413.252 42.2405C413.252 47.7061 413.786 51.7626 414.853 54.4099C415.963 57.0573 417.437 58.381 419.273 58.381C421.151 58.381 422.625 57.0787 423.692 54.474C424.76 51.8266 425.293 47.7488 425.293 42.2405C425.293 36.7323 424.738 32.6545 423.628 30.0071C422.56 27.3597 421.109 26.036 419.273 26.036Z" fill="#9F9F9F"/>
<path d="M455.616 24.755C457.196 24.755 458.691 24.9258 460.1 25.2674C461.509 25.609 462.683 26.0787 463.622 26.6765C464.733 27.3597 465.587 28.235 466.184 29.3025C466.825 30.3273 467.145 31.4589 467.145 32.6972C467.145 34.1916 466.675 35.4299 465.736 36.412C464.797 37.3514 463.58 37.8211 462.085 37.8211C460.591 37.8211 459.395 37.3941 458.498 36.5401C457.602 35.6861 457.153 34.5332 457.153 33.0814C457.153 31.8005 457.559 30.6903 458.37 29.7509C459.182 28.8115 460.185 28.171 461.381 27.8294C461.039 27.3597 460.505 26.9967 459.779 26.7405C459.096 26.4416 458.349 26.2922 457.538 26.2922C454.976 26.2922 452.969 27.7013 451.517 30.5195C450.108 33.2949 449.403 36.9458 449.403 41.4719C449.403 46.0408 450.215 49.3287 451.837 51.3356C453.46 53.3424 455.488 54.3459 457.922 54.3459C459.374 54.3459 460.826 53.9616 462.277 53.193C463.772 52.4244 465.117 51.0794 466.312 49.1579L467.401 49.5422C466.547 52.3177 465.053 54.7088 462.918 56.7157C460.783 58.6799 458.029 59.662 454.655 59.662C450.257 59.662 446.671 58.2102 443.895 55.3066C441.12 52.403 439.732 48.0904 439.732 42.3686C439.732 38.6111 440.415 35.4086 441.782 32.7612C443.148 30.1138 445.027 28.1283 447.418 26.8046C449.809 25.4382 452.542 24.755 455.616 24.755Z" fill="#9F9F9F"/>
<path d="M553.468 40.05V57.8763H547.463V12.3411H564.257C569.24 12.3411 573.139 13.6129 575.954 16.1565C578.789 18.7002 580.207 22.0673 580.207 26.2581C580.207 30.6782 578.821 34.0871 576.048 36.4847C573.296 38.8616 569.345 40.05 564.195 40.05H553.468ZM553.468 35.14H564.257C567.468 35.14 569.928 34.3894 571.638 32.8882C573.348 31.3662 574.203 29.177 574.203 26.3206C574.203 23.6102 573.348 21.4419 571.638 19.8156C569.928 18.1894 567.583 17.3449 564.601 17.2824H553.468V35.14Z" fill="#9F9F9F"/>
<path d="M600.567 58.5018C595.98 58.5018 592.248 57.0006 589.371 53.9983C586.493 50.9751 585.055 46.9407 585.055 41.8952V40.8319C585.055 37.4751 585.691 34.4832 586.962 31.8562C588.255 29.2083 590.048 27.1442 592.342 25.6639C594.656 24.1627 597.158 23.4121 599.847 23.4121C604.247 23.4121 607.666 24.8612 610.105 27.7592C612.545 30.6573 613.764 34.8064 613.764 40.2064V42.6145H590.84C590.924 45.9504 591.893 48.6504 593.749 50.7145C595.625 52.7577 598.002 53.7794 600.879 53.7794C602.923 53.7794 604.653 53.3624 606.071 52.5284C607.489 51.6944 608.729 50.5894 609.793 49.2133L613.327 51.9655C610.491 56.323 606.238 58.5018 600.567 58.5018ZM599.847 28.1658C597.512 28.1658 595.552 29.0206 593.968 30.7303C592.383 32.4191 591.403 34.7959 591.028 37.8608H607.979V37.423C607.812 34.4832 607.02 32.2106 605.602 30.6052C604.184 28.9789 602.266 28.1658 599.847 28.1658Z" fill="#9F9F9F"/>
<path d="M636.845 29.2291C635.969 29.0832 635.02 29.0102 633.999 29.0102C630.204 29.0102 627.629 30.626 626.274 33.8577V57.8763H620.488V24.0376H626.118L626.212 27.9469C628.109 24.9237 630.798 23.4121 634.28 23.4121C635.406 23.4121 636.261 23.5581 636.845 23.85V29.2291Z" fill="#9F9F9F"/>
<path d="M647.666 24.0376L647.853 28.2909C650.439 25.0384 653.816 23.4121 657.986 23.4121C665.137 23.4121 668.744 27.4465 668.807 35.5152V57.8763H663.021V35.484C663 33.0446 662.437 31.2411 661.332 30.0735C660.248 28.906 658.549 28.3222 656.235 28.3222C654.358 28.3222 652.711 28.8226 651.293 29.8233C649.876 30.8241 648.771 32.1376 647.978 33.7639V57.8763H642.193V24.0376H647.666Z" fill="#9F9F9F"/>
<path d="M683.819 57.8763H678.033V24.0376H683.819V57.8763ZM677.564 15.0619C677.564 14.1237 677.845 13.3314 678.408 12.6851C678.992 12.0388 679.847 11.7156 680.973 11.7156C682.099 11.7156 682.953 12.0388 683.537 12.6851C684.121 13.3314 684.413 14.1237 684.413 15.0619C684.413 16.0002 684.121 16.782 683.537 17.4075C682.953 18.033 682.099 18.3457 680.973 18.3457C679.847 18.3457 678.992 18.033 678.408 17.4075C677.845 16.782 677.564 16.0002 677.564 15.0619Z" fill="#9F9F9F"/>
<path d="M702.552 42.2079L698.924 45.9921V57.8763H693.138V9.83915H698.924V38.8929L702.02 35.1712L712.56 24.0376H719.596L706.43 38.1735L721.129 57.8763H714.342L702.552 42.2079Z" fill="#9F9F9F"/>
<path d="M827.003 18.1898C826.704 15.9268 826.084 13.9626 825.145 12.2973C824.206 10.5893 822.946 9.28695 821.366 8.39026C819.829 7.45087 817.972 6.98117 815.794 6.98117C813.702 6.98117 811.951 7.57897 810.542 8.77456C809.175 9.97015 808.492 11.4433 808.492 13.194C808.492 14.6458 808.898 15.9054 809.709 16.9729C810.563 18.0404 811.78 19.0225 813.36 19.9192C814.94 20.7732 816.819 21.6699 818.996 22.6093C820.619 23.2924 822.263 24.061 823.928 24.915C825.593 25.7263 827.131 26.7084 828.54 27.8613C829.949 29.0142 831.08 30.3592 831.934 31.8964C832.831 33.3909 833.279 35.1843 833.279 37.2766C833.279 39.7532 832.618 41.9522 831.294 43.8737C830.013 45.7952 828.177 47.2897 825.786 48.3572C823.394 49.4246 820.576 49.9584 817.331 49.9584C815.538 49.9584 813.638 49.6808 811.631 49.1258C809.624 48.6134 807.788 47.8234 806.122 46.7559L806.315 49.51H801.959L801.831 34.9708H805.482C805.952 38.6003 807.297 41.3544 809.517 43.2332C811.737 45.0693 814.406 45.9873 817.523 45.9873C819.103 45.9873 820.512 45.7098 821.75 45.1547C822.989 44.5569 823.949 43.7669 824.633 42.7848C825.359 41.7601 825.722 40.6072 825.722 39.3262C825.722 37.6609 825.209 36.2945 824.184 35.227C823.16 34.1595 821.857 33.2415 820.277 32.4729C818.697 31.7043 817.053 30.957 815.346 30.2311C813.424 29.4199 811.609 28.5659 809.901 27.6692C808.193 26.7298 806.677 25.6836 805.354 24.5307C804.073 23.3351 803.048 21.9688 802.279 20.4316C801.554 18.8944 801.191 17.0796 801.191 14.9874C801.191 13.7491 801.425 12.4467 801.895 11.0803C802.365 9.67125 803.133 8.36891 804.201 7.17332C805.311 5.97773 806.784 4.99564 808.62 4.22705C810.456 3.45845 812.741 3.07415 815.474 3.07415C817.182 3.07415 819.039 3.33035 821.046 3.84275C823.095 4.31244 824.889 5.10239 826.426 6.21258L826.17 3.5225H830.589V18.1898H827.003Z" fill="#9F9F9F"/>
<path d="M837.193 65.2662V61.8716C838.431 61.8716 839.307 61.5941 839.819 61.039C840.374 60.5266 840.716 59.7793 840.844 58.7972C840.972 57.8151 841.036 56.7049 841.036 55.4667L841.1 27.0927C841.1 26.3241 841.1 25.5128 841.1 24.6588C841.143 23.8048 841.228 22.9295 841.356 22.0328C840.63 22.0755 839.819 22.1182 838.922 22.1609C838.068 22.2036 837.364 22.2463 836.809 22.289V18.1258C838.773 18.1258 840.353 18.0404 841.548 17.8696C842.787 17.6561 843.726 17.3999 844.366 17.101C845.05 16.8021 845.541 16.5245 845.84 16.2683H848.594C848.679 16.6953 848.743 17.2077 848.786 17.8055C848.829 18.4033 848.871 18.9584 848.914 19.4708C850.323 18.2325 851.818 17.3358 853.397 16.7807C854.977 16.183 856.493 15.8841 857.945 15.8841C860.507 15.8841 862.791 16.5459 864.798 17.8696C866.805 19.1506 868.385 21.008 869.538 23.4419C870.691 25.8331 871.267 28.6726 871.267 31.9605C871.267 35.4619 870.563 38.5789 869.154 41.3117C867.787 44.0018 865.908 46.1154 863.517 47.6526C861.126 49.1898 858.372 49.9584 855.255 49.9584C853.974 49.9584 852.821 49.8089 851.796 49.51C850.771 49.2538 849.811 48.9122 848.914 48.4853V56.1071C848.914 56.7903 848.893 57.6016 848.85 58.541C848.85 59.5231 848.786 60.4625 848.658 61.3592C849.341 61.2738 850.067 61.2098 850.835 61.1671C851.604 61.1671 852.245 61.1671 852.757 61.1671V65.2662H837.193ZM854.55 45.9233C856.514 45.8806 858.094 45.2828 859.29 44.1299C860.528 42.9343 861.425 41.3544 861.98 39.3902C862.535 37.426 862.813 35.2911 862.813 32.9853C862.813 30.893 862.535 28.9075 861.98 27.0287C861.468 25.1499 860.635 23.634 859.482 22.4812C858.329 21.3283 856.792 20.7518 854.871 20.7518C853.675 20.7945 852.543 21.0934 851.476 21.6485C850.451 22.2036 849.597 22.9295 848.914 23.8262C848.914 24.7656 848.914 25.7263 848.914 26.7084C848.914 27.6905 848.914 28.7367 848.914 29.8468C848.914 30.957 848.914 32.2167 848.914 33.6258C848.914 34.9922 848.914 36.5507 848.914 38.3014C848.914 40.0521 848.914 42.059 848.914 44.322C849.597 44.7917 850.43 45.176 851.412 45.4749C852.394 45.7738 853.44 45.9233 854.55 45.9233Z" fill="#9F9F9F"/>
<path d="M894.62 48.9336C894.492 48.2931 894.407 47.7594 894.364 47.3324C894.364 46.8627 894.343 46.3289 894.3 45.7311C892.848 47.1829 891.29 48.2504 889.624 48.9336C888.002 49.6168 886.315 49.9584 884.565 49.9584C881.661 49.9584 879.419 49.1684 877.839 47.5886C876.302 46.0087 875.534 44.0658 875.534 41.7601C875.534 39.7105 876.089 37.9811 877.199 36.572C878.309 35.1203 879.761 33.946 881.554 33.0493C883.348 32.1099 885.333 31.4054 887.511 30.9357C889.688 30.4233 891.845 30.1457 893.98 30.103V26.5803C893.98 25.342 893.83 24.2105 893.531 23.1857C893.275 22.1182 892.784 21.2856 892.058 20.6878C891.332 20.0473 890.265 19.727 888.856 19.727C887.916 19.7697 886.956 19.9832 885.974 20.3675C885.034 20.7091 884.287 21.2642 883.732 22.0328C884.073 22.4171 884.287 22.8441 884.372 23.3138C884.458 23.7408 884.5 24.1251 884.5 24.4667C884.5 25.2353 884.202 26.0466 883.604 26.9006C883.006 27.7119 882.045 28.0962 880.722 28.0535C879.569 28.0108 878.672 27.6051 878.031 26.8365C877.434 26.0679 877.135 25.1499 877.135 24.0824C877.135 22.4598 877.711 21.0507 878.864 19.8551C880.06 18.6168 881.661 17.6561 883.668 16.9729C885.675 16.247 887.916 15.8841 890.393 15.8841C894.065 15.8841 896.883 16.8448 898.848 18.7663C900.812 20.6878 901.772 23.7621 901.73 27.9894C901.73 29.4839 901.73 30.8503 901.73 32.0886C901.73 33.2842 901.708 34.5011 901.666 35.7394C901.666 36.935 901.666 38.28 901.666 39.7745C901.666 40.415 901.644 41.2263 901.602 42.2084C901.559 43.1478 901.495 44.0872 901.41 45.0266C902.178 44.9412 902.947 44.8985 903.715 44.8985C904.527 44.8558 905.188 44.8131 905.701 44.7704V48.9336H894.62ZM893.916 33.882C892.635 33.9674 891.375 34.1809 890.137 34.5225C888.899 34.8214 887.788 35.2484 886.806 35.8035C885.824 36.3586 885.034 37.0631 884.436 37.9171C883.881 38.7284 883.625 39.6678 883.668 40.7353C883.711 42.059 884.138 43.041 884.949 43.6815C885.76 44.2793 886.699 44.5782 887.767 44.5782C889.005 44.5782 890.115 44.322 891.098 43.8096C892.122 43.2972 893.062 42.6141 893.916 41.7601C893.916 41.3331 893.916 40.8847 893.916 40.415C893.916 39.9453 893.916 39.4756 893.916 39.0059C893.916 38.4081 893.916 37.6609 893.916 36.7642C893.916 35.8675 893.916 34.9068 893.916 33.882Z" fill="#9F9F9F"/>
<path d="M921.816 49.9584C920.62 49.9584 919.446 49.8089 918.293 49.51C917.183 49.2111 916.158 48.6561 915.219 47.8448C914.322 47.0335 913.596 45.8379 913.041 44.258C912.486 42.6354 912.208 40.5004 912.208 37.853L912.336 21.3283L907.789 21.3923V16.9088C909.07 16.8661 910.308 16.4391 911.504 15.6279C912.699 14.7739 913.746 13.6637 914.642 12.2973C915.539 10.9309 916.137 9.4791 916.436 7.94191H920.343L920.279 16.9088H929.31V21.008L920.279 21.2002L920.215 37.6609C920.215 38.9419 920.321 40.1375 920.535 41.2477C920.791 42.3152 921.218 43.1691 921.816 43.8096C922.456 44.4501 923.31 44.7704 924.378 44.7704C925.189 44.7704 926.107 44.5142 927.132 44.0018C928.199 43.4894 929.267 42.4646 930.334 40.9274L932.96 43.2972C931.893 44.9198 930.783 46.1795 929.63 47.0762C928.52 47.9729 927.431 48.6347 926.363 49.0617C925.339 49.4887 924.42 49.7449 923.609 49.8303C922.798 49.9157 922.2 49.9584 921.816 49.9584Z" fill="#9F9F9F"/>
<path d="M948.543 49.9584C946.067 49.9584 944.039 49.4887 942.459 48.5493C940.922 47.6099 939.79 46.1154 939.064 44.0658C938.338 41.9736 937.975 39.2408 937.975 35.8675V27.1568C937.975 26.4309 937.997 25.6196 938.039 24.7229C938.082 23.8262 938.125 22.9295 938.167 22.0328C937.484 22.0755 936.716 22.1182 935.862 22.1609C935.008 22.1609 934.303 22.1823 933.748 22.225V18.1258H934.837C937.185 18.1258 939 17.9336 940.281 17.5493C941.605 17.1223 942.501 16.6953 942.971 16.2683H945.917V35.8675C945.917 38.9419 946.323 41.2263 947.134 42.7208C947.988 44.2153 949.355 44.9625 951.234 44.9625C952.515 44.9198 953.774 44.5355 955.012 43.8096C956.293 43.0837 957.318 42.2298 958.087 41.2477V27.413C958.087 26.559 958.108 25.6836 958.151 24.7869C958.194 23.8475 958.258 22.9295 958.343 22.0328C957.66 22.0755 956.87 22.1182 955.973 22.1609C955.119 22.1609 954.415 22.1823 953.86 22.225V18.1258H955.525C957.489 18.1258 959.112 17.9123 960.393 17.4853C961.716 17.0583 962.592 16.6526 963.019 16.2683H965.965V39.2621C965.965 39.8599 965.944 40.7353 965.901 41.8882C965.858 43.041 965.794 44.0872 965.709 45.0266C966.435 44.9412 967.203 44.8985 968.015 44.8985C968.826 44.8558 969.488 44.8131 970 44.7704V48.9336H958.855C958.77 48.3358 958.685 47.738 958.599 47.1402C958.557 46.5424 958.514 45.966 958.471 45.4109C957.147 46.6065 955.653 47.674 953.988 48.6134C952.365 49.51 950.55 49.9584 948.543 49.9584Z" fill="#9F9F9F"/>
</svg>
