<svg width="32" height="31" viewBox="0 0 32 31" fill="none" xmlns="http://www.w3.org/2000/svg">
<path d="M6.99998 15C6.99998 14.7348 7.10534 14.4804 7.29288 14.2929C7.48041 14.1054 7.73477 14 7.99998 14L21.59 14L20.29 12.71C20.1017 12.5217 19.9959 12.2663 19.9959 12C19.9959 11.7337 20.1017 11.4783 20.29 11.29C20.4783 11.1017 20.7337 10.9959 21 10.9959C21.2663 10.9959 21.5217 11.1017 21.71 11.29L24.71 14.29C24.8487 14.4306 24.9427 14.6092 24.9801 14.8032C25.0175 14.9972 24.9966 15.1979 24.92 15.38C24.845 15.5626 24.7176 15.7189 24.5538 15.8293C24.3901 15.9396 24.1974 15.999 24 16L7.99998 16C7.73477 16 7.48041 15.8946 7.29288 15.7071C7.10534 15.5196 6.99998 15.2652 6.99998 15Z" fill="#393D46"/>
<path d="M20.0001 18C19.9993 17.8684 20.0245 17.7379 20.0743 17.6161C20.1241 17.4943 20.1974 17.3834 20.2901 17.29L23.2901 14.29C23.4784 14.1017 23.7338 13.9959 24.0001 13.9959C24.1319 13.9959 24.2625 14.0219 24.3843 14.0723C24.5061 14.1228 24.6168 14.1968 24.7101 14.29C24.8033 14.3832 24.8773 14.4939 24.9277 14.6158C24.9782 14.7376 25.0042 14.8681 25.0042 15C25.0042 15.2663 24.8984 15.5217 24.7101 15.71L21.7101 18.71C21.6171 18.8037 21.5065 18.8781 21.3846 18.9289C21.2628 18.9797 21.1321 19.0058 21.0001 19.0058C20.868 19.0058 20.7373 18.9797 20.6155 18.9289C20.4936 18.8781 20.383 18.8037 20.2901 18.71C20.1974 18.6166 20.1241 18.5057 20.0743 18.3839C20.0245 18.2621 19.9993 18.1316 20.0001 18Z" fill="#393D46"/>
</svg>
